<svg data-v-423bf9ae="" xmlns="http://www.w3.org/2000/svg" viewBox="0 0 364.9204035044493 60" class="font"><!----><!----><!----><g data-v-423bf9ae="" id="9284a945-1714-466c-900a-1056a4f41de3" fill="white" transform="matrix(4.777069904097269,0,0,4.777069904097269,-1.2898136758876717,-2.1974517487128864)"><path d="M7.55 6.16C7.29 6.85 6.61 7.36 5.66 7.36C4.47 7.36 3.91 6.58 3.91 5.60C3.91 4.61 4.47 3.81 5.66 3.81C6.66 3.81 7.14 4.31 7.55 4.72C7.55 4.73 7.55 1.13 7.55 1.13C6.85 0.71 6.01 0.46 5.11 0.46C2.32 0.46 0.27 2.76 0.27 5.60C0.27 8.44 2.32 10.72 5.11 10.72C6.01 10.72 6.85 10.49 7.55 10.07C7.55 10.11 7.55 6.16 7.55 6.16ZM13.33 3.60L13.16 3.60C11.91 3.60 11.44 4.16 11.17 4.47L11.17 3.74L8.23 3.74L8.23 10.50L11.17 10.50L11.17 7.28C11.17 6.85 11.62 6.34 12.33 6.34C12.50 6.34 12.71 6.36 13.33 6.50ZM18.21 13.02L21.28 3.74L18.34 3.74L17.54 6.90L16.76 3.74L13.82 3.74L16.31 10.50L15.58 13.02ZM24.77 3.75L21.85 3.75L21.85 13.02L24.77 13.02L24.77 10.05C25.19 10.47 25.76 10.68 26.33 10.68C27.94 10.68 29.25 9.11 29.25 7.13C29.25 5.12 27.94 3.64 26.33 3.64C25.76 3.64 25.17 3.79 24.77 4.23ZM24.75 7.13C24.75 6.58 24.98 6.17 25.49 6.17C26.00 6.17 26.24 6.58 26.24 7.13C26.24 7.66 26.00 8.09 25.49 8.09C24.98 8.09 24.75 7.66 24.75 7.13ZM34.78 10.19C34.78 10.19 34.78 7.88 34.78 7.91C34.54 7.98 34.19 8.02 33.95 8.02C33.67 8.02 33.67 7.87 33.67 7.57C33.67 7.57 33.67 6.15 33.67 6.15L34.78 6.15L34.78 3.74L33.67 3.74L33.67 1.95L30.73 1.95L30.73 3.74L29.72 3.74L29.72 6.15L30.73 6.15C30.73 6.15 30.73 7.57 30.73 7.57C30.73 9.98 31.68 10.50 33.40 10.50C33.88 10.50 34.33 10.36 34.78 10.19ZM39.47 8.48C38.70 8.48 38.23 8.09 38.05 7.60L42.25 7.60L42.25 7.10C42.25 5.14 40.96 3.60 39.03 3.60C36.92 3.60 35.36 5.15 35.36 7.10C35.36 9.04 36.92 10.61 39.03 10.61C39.79 10.61 40.75 10.42 41.33 10.08L41.33 7.92C40.88 8.26 40.11 8.48 39.47 8.48ZM38.11 6.19C38.25 5.88 38.51 5.66 39.03 5.66C39.37 5.66 39.66 5.92 39.76 6.19ZM47.98 3.60L47.81 3.60C46.56 3.60 46.09 4.16 45.82 4.47L45.82 3.74L42.88 3.74L42.88 10.50L45.82 10.50L45.82 7.28C45.82 6.85 46.27 6.34 46.98 6.34C47.15 6.34 47.36 6.36 47.98 6.50ZM55.76 6.16C55.51 6.85 54.82 7.36 53.87 7.36C52.68 7.36 52.12 6.58 52.12 5.60C52.12 4.61 52.68 3.81 53.87 3.81C54.88 3.81 55.36 4.31 55.76 4.72C55.76 4.73 55.76 1.13 55.76 1.13C55.06 0.71 54.22 0.46 53.33 0.46C50.54 0.46 48.48 2.76 48.48 5.60C48.48 8.44 50.54 10.72 53.33 10.72C54.22 10.72 55.06 10.49 55.76 10.07C55.76 10.11 55.76 6.16 55.76 6.16ZM59.39 10.50L59.39 7.28C59.39 6.85 59.49 6.34 60.05 6.34C60.27 6.34 60.51 6.57 60.51 6.82L60.51 10.50L63.45 10.50L63.45 6.82C63.45 5.24 63.13 3.60 61.38 3.60C60.13 3.60 59.74 4.05 59.39 4.24L59.39 0.70L56.45 0.70L56.45 10.50ZM68.10 10.50L71.01 10.50L71.01 3.74L68.10 3.74L68.10 4.20C67.68 3.78 67.10 3.57 66.53 3.57C64.92 3.57 64.01 5.14 64.01 7.13C64.01 9.13 64.92 10.61 66.53 10.61C67.10 10.61 67.69 10.46 68.10 10.02ZM68.11 7.13C68.11 7.67 67.89 8.08 67.37 8.08C66.86 8.08 66.63 7.67 66.63 7.13C66.63 6.59 66.86 6.16 67.37 6.16C67.89 6.16 68.11 6.59 68.11 7.13ZM76.66 10.19C76.66 10.19 76.66 7.88 76.66 7.91C76.43 7.98 76.08 8.02 75.84 8.02C75.56 8.02 75.56 7.87 75.56 7.57C75.56 7.57 75.56 6.15 75.56 6.15L76.66 6.15L76.66 3.74L75.56 3.74L75.56 1.95L72.62 1.95L72.62 3.74L71.61 3.74L71.61 6.15L72.62 6.15C72.62 6.15 72.62 7.57 72.62 7.57C72.62 9.98 73.57 10.50 75.29 10.50C75.77 10.50 76.22 10.36 76.66 10.19Z"></path></g><!----><!----></svg>